<svg width="230" height="230" viewBox="0 0 230 230" fill="none" xmlns="http://www.w3.org/2000/svg">
<rect x="230" y="230" width="230" height="230" rx="115" transform="rotate(180 230 230)" fill="url(#paint0_linear_1_140)" fill-opacity="0.6"/>
<path d="M74.7271 77.5H155.273C155.999 77.5 156.71 77.711 157.319 78.1074C157.928 78.5038 158.409 79.0685 158.702 79.7329C158.996 80.3973 159.091 81.1328 158.975 81.8499C158.858 82.567 158.536 83.235 158.048 83.7725L127.225 117.677C126.598 118.368 126.25 119.267 126.25 120.2V146.743C126.25 147.36 126.098 147.968 125.806 148.513C125.515 149.057 125.094 149.521 124.58 149.863L109.58 159.863C109.015 160.24 108.359 160.456 107.681 160.489C107.003 160.521 106.329 160.37 105.731 160.049C105.132 159.729 104.632 159.252 104.283 158.67C103.934 158.088 103.75 157.422 103.75 156.743V120.2C103.75 119.267 103.402 118.368 102.775 117.677L71.9523 83.7725C71.4636 83.235 71.1416 82.567 71.0254 81.8499C70.9092 81.1328 71.0038 80.3973 71.2977 79.7329C71.5916 79.0685 72.0722 78.5038 72.681 78.1074C73.2898 77.711 74.0006 77.5 74.7271 77.5V77.5Z" stroke="white" stroke-width="7.5" stroke-linecap="round" stroke-linejoin="round"/>
<defs>
<linearGradient id="paint0_linear_1_140" x1="251.012" y1="492.844" x2="517.719" y2="322.166" gradientUnits="userSpaceOnUse">
<stop stop-color="#838BC5"/>
<stop offset="0.1328" stop-color="#8687C0"/>
<stop offset="0.2947" stop-color="#8D7AB1"/>
<stop offset="0.4718" stop-color="#9A6598"/>
<stop offset="0.6597" stop-color="#AB4876"/>
<stop offset="0.8541" stop-color="#C1234A"/>
<stop offset="1" stop-color="#D40324"/>
</linearGradient>
</defs>
</svg>
